<svg width="48" height="48" viewBox="0 0 48 48" fill="none" xmlns="http://www.w3.org/2000/svg">
<path d="M2.25 15.75H45.75V44.25C45.75 44.6478 45.592 45.0294 45.3107 45.3107C45.0294 45.592 44.6478 45.75 44.25 45.75H3.75C3.35218 45.75 2.97064 45.592 2.68934 45.3107C2.40804 45.0294 2.25 44.6478 2.25 44.25V15.75Z" fill="#E4E4E4"/>
<path d="M4.5 15.75H45.75V44.25C45.75 44.6478 45.592 45.0294 45.3107 45.3107C45.0294 45.592 44.6478 45.75 44.25 45.75H6C5.60218 45.75 5.22064 45.592 4.93934 45.3107C4.65804 45.0294 4.5 44.6478 4.5 44.25V15.75Z" fill="#FAFAFA"/>
<path d="M2.25 15.75H45.75V17.625H2.25V15.75Z" fill="#FAFAFA"/>
<path d="M4.5 15.75H45.75V17.625H4.5V15.75Z" fill="#E4E4E4"/>
<path d="M45.75 6.75H2.25C1.42157 6.75 0.75 7.42157 0.75 8.25V14.25C0.75 15.0784 1.42157 15.75 2.25 15.75H45.75C46.5784 15.75 47.25 15.0784 47.25 14.25V8.25C47.25 7.42157 46.5784 6.75 45.75 6.75Z" fill="#1AC5D3"/>
<path d="M4.5 8.625C4.10218 8.625 3.72064 8.78304 3.43934 9.06434C3.15804 9.34564 3 9.72718 3 10.125V15.75H45.75C46.1478 15.75 46.5294 15.592 46.8107 15.3107C47.092 15.0294 47.25 14.6478 47.25 14.25V8.625H4.5Z" fill="#11A5B1"/>
<path d="M24 1.6875C23.4531 1.6879 22.9287 1.90532 22.542 2.29203C22.1553 2.67874 21.9379 3.20311 21.9375 3.75V6.75H23.0625V3.75C23.0625 3.50136 23.1613 3.2629 23.3371 3.08709C23.5129 2.91127 23.7514 2.8125 24 2.8125C24.2486 2.8125 24.4871 2.91127 24.6629 3.08709C24.8387 3.2629 24.9375 3.50136 24.9375 3.75V9.75C24.9371 9.99852 24.8382 10.2367 24.6625 10.4125C24.4867 10.5882 24.2485 10.6871 24 10.6875C23.8508 10.6875 23.7077 10.7468 23.6023 10.8523C23.4968 10.9577 23.4375 11.1008 23.4375 11.25C23.4375 11.3992 23.4968 11.5423 23.6023 11.6477C23.7077 11.7532 23.8508 11.8125 24 11.8125C24.5469 11.8121 25.0713 11.5947 25.458 11.208C25.8447 10.8213 26.0621 10.2969 26.0625 9.75V3.75C26.0621 3.20311 25.8447 2.67874 25.458 2.29203C25.0713 1.90532 24.5469 1.6879 24 1.6875Z" fill="#3E3D42"/>
<path d="M42 1.6875C41.4531 1.6879 40.9287 1.90532 40.542 2.29203C40.1553 2.67874 39.9379 3.20311 39.9375 3.75V6.75H41.0625V3.75C41.0625 3.50136 41.1613 3.2629 41.3371 3.08709C41.5129 2.91127 41.7514 2.8125 42 2.8125C42.2486 2.8125 42.4871 2.91127 42.6629 3.08709C42.8387 3.2629 42.9375 3.50136 42.9375 3.75V9.75C42.9371 9.99852 42.8382 10.2367 42.6625 10.4125C42.4867 10.5882 42.2485 10.6871 42 10.6875C41.8508 10.6875 41.7077 10.7468 41.6023 10.8523C41.4968 10.9577 41.4375 11.1008 41.4375 11.25C41.4375 11.3992 41.4968 11.5423 41.6023 11.6477C41.7077 11.7532 41.8508 11.8125 42 11.8125C42.5469 11.8121 43.0713 11.5947 43.458 11.208C43.8447 10.8213 44.0621 10.2969 44.0625 9.75V3.75C44.0621 3.20311 43.8447 2.67874 43.458 2.29203C43.0713 1.90532 42.5469 1.6879 42 1.6875Z" fill="#3E3D42"/>
<path d="M33 1.6875C32.4531 1.6879 31.9287 1.90532 31.542 2.29203C31.1553 2.67874 30.9379 3.20311 30.9375 3.75V6.75H32.0625V3.75C32.0625 3.50136 32.1613 3.2629 32.3371 3.08709C32.5129 2.91127 32.7514 2.8125 33 2.8125C33.2486 2.8125 33.4871 2.91127 33.6629 3.08709C33.8387 3.2629 33.9375 3.50136 33.9375 3.75V9.75C33.9371 9.99852 33.8382 10.2367 33.6625 10.4125C33.4867 10.5882 33.2485 10.6871 33 10.6875C32.8508 10.6875 32.7077 10.7468 32.6023 10.8523C32.4968 10.9577 32.4375 11.1008 32.4375 11.25C32.4375 11.3992 32.4968 11.5423 32.6023 11.6477C32.7077 11.7532 32.8508 11.8125 33 11.8125C33.5469 11.8121 34.0713 11.5947 34.458 11.208C34.8447 10.8213 35.0621 10.2969 35.0625 9.75V3.75C35.0621 3.20311 34.8447 2.67874 34.458 2.29203C34.0713 1.90532 33.5469 1.6879 33 1.6875Z" fill="#3E3D42"/>
<path d="M6 1.6875C5.45311 1.6879 4.92874 1.90532 4.54203 2.29203C4.15532 2.67874 3.9379 3.20311 3.9375 3.75V6.75H5.0625V3.75C5.0625 3.50136 5.16127 3.2629 5.33709 3.08709C5.5129 2.91127 5.75136 2.8125 6 2.8125C6.24864 2.8125 6.4871 2.91127 6.66291 3.08709C6.83873 3.2629 6.9375 3.50136 6.9375 3.75V9.75C6.9371 9.99852 6.8382 10.2367 6.66247 10.4125C6.48674 10.5882 6.24852 10.6871 6 10.6875C5.85082 10.6875 5.70774 10.7468 5.60225 10.8523C5.49676 10.9577 5.4375 11.1008 5.4375 11.25C5.4375 11.3992 5.49676 11.5423 5.60225 11.6477C5.70774 11.7532 5.85082 11.8125 6 11.8125C6.54689 11.8121 7.07126 11.5947 7.45797 11.208C7.84468 10.8213 8.0621 10.2969 8.0625 9.75V3.75C8.0621 3.20311 7.84468 2.67874 7.45797 2.29203C7.07126 1.90532 6.54689 1.6879 6 1.6875Z" fill="#3E3D42"/>
<path d="M15 1.6875C14.4531 1.6879 13.9287 1.90532 13.542 2.29203C13.1553 2.67874 12.9379 3.20311 12.9375 3.75V6.75H14.0625V3.75C14.0625 3.50136 14.1613 3.2629 14.3371 3.08709C14.5129 2.91127 14.7514 2.8125 15 2.8125C15.2486 2.8125 15.4871 2.91127 15.6629 3.08709C15.8387 3.2629 15.9375 3.50136 15.9375 3.75V9.75C15.9371 9.99852 15.8382 10.2367 15.6625 10.4125C15.4867 10.5882 15.2485 10.6871 15 10.6875C14.8508 10.6875 14.7077 10.7468 14.6023 10.8523C14.4968 10.9577 14.4375 11.1008 14.4375 11.25C14.4375 11.3992 14.4968 11.5423 14.6023 11.6477C14.7077 11.7532 14.8508 11.8125 15 11.8125C15.5469 11.8121 16.0713 11.5947 16.458 11.208C16.8447 10.8213 17.0621 10.2969 17.0625 9.75V3.75C17.0621 3.20311 16.8447 2.67874 16.458 2.29203C16.0713 1.90532 15.5469 1.6879 15 1.6875Z" fill="#3E3D42"/>
<path d="M21.75 36H26.25V40.5H21.75V36Z" fill="#FED866"/>
<path d="M21.75 28.5H26.25V33H21.75V28.5Z" fill="#FED866"/>
<path d="M21.75 21H26.25V25.5H21.75V21Z" fill="#FED866"/>
<path d="M14.25 36H18.75V40.5H14.25V36Z" fill="#FED866"/>
<path d="M14.25 28.5H18.75V33H14.25V28.5Z" fill="#FED866"/>
<path d="M14.25 21H18.75V25.5H14.25V21Z" fill="#FED866"/>
<path d="M29.25 36H33.75V40.5H29.25V36Z" fill="#FED866"/>
<path d="M29.25 28.5H33.75V33H29.25V28.5Z" fill="#FED866"/>
<path d="M29.25 21H33.75V25.5H29.25V21Z" fill="#FED866"/>
<path d="M36.75 36H41.25V40.5H36.75V36Z" fill="#E55E79"/>
<path d="M36.75 28.5H41.25V33H36.75V28.5Z" fill="#E55E79"/>
<path d="M36.75 21H41.25V25.5H36.75V21Z" fill="#E55E79"/>
<path d="M6.75 36H11.25V40.5H6.75V36Z" fill="#FED866"/>
<path d="M6.75 28.5H11.25V33H6.75V28.5Z" fill="#FED866"/>
<path d="M6.75 21H11.25V25.5H6.75V21Z" fill="#FED866"/>
</svg>
