<svg width="48" height="48" viewBox="0 0 48 48" fill="none" xmlns="http://www.w3.org/2000/svg">
<g clip-path="url(#clip0_322_3966)">
<path d="M24 48C37.2548 48 48 37.2548 48 24C48 10.7452 37.2548 0 24 0C10.7452 0 0 10.7452 0 24C0 37.2548 10.7452 48 24 48Z" fill="#11A5B1"/>
<path d="M24 43.4845C34.761 43.4845 43.4845 34.7611 43.4845 24.0001C43.4845 13.2391 34.761 4.51562 24 4.51562C13.2391 4.51562 4.51556 13.2391 4.51556 24.0001C4.51556 34.7611 13.2391 43.4845 24 43.4845Z" fill="#F7F7F7"/>
<path d="M24.0003 7.09248C34.3281 7.09248 42.7776 15.1283 43.4411 25.2884C43.469 24.8623 43.4846 24.433 43.4846 24C43.4846 13.239 34.7612 4.51562 24.0003 4.51562C13.2393 4.51562 4.51599 13.2389 4.51599 24C4.51599 24.433 4.53165 24.8624 4.55949 25.2884C5.22297 15.1283 13.6725 7.09248 24.0003 7.09248Z" fill="#E4E3E5"/>
<path d="M24.0002 4.51562V43.4844C34.7612 43.4844 43.4846 34.7609 43.4846 24.0001C43.4847 13.2391 34.7612 4.51562 24.0002 4.51562Z" fill="#E4E3E5"/>
<path d="M24.0003 4.51562C23.569 4.51562 23.1414 4.53119 22.7172 4.55884V9.66755C22.7172 10.3762 23.2916 10.9506 24.0003 10.9506C24.709 10.9506 25.2834 10.3762 25.2834 9.66755V4.55875C24.8592 4.53109 24.4317 4.51562 24.0003 4.51562Z" fill="#3E3D42"/>
<path d="M24.0003 36.9043C23.2916 36.9043 22.7172 37.4787 22.7172 38.1874V43.4118C22.7172 43.4218 22.7185 43.4315 22.7187 43.4413C23.1426 43.4688 23.5696 43.4842 24.0003 43.4842C24.4311 43.4842 24.8581 43.4688 25.2819 43.4413C25.2821 43.4313 25.2834 43.4217 25.2834 43.4118V38.1874C25.2836 37.4787 24.709 36.9043 24.0003 36.9043Z" fill="#3E3D42"/>
<path d="M43.4371 22.6445H38.2604C37.5517 22.6445 36.9773 23.2189 36.9773 23.9276C36.9773 24.6363 37.5517 25.2107 38.2604 25.2107H43.4462C43.4708 24.8102 43.4848 24.4069 43.4848 24.0001C43.4848 23.5444 43.4679 23.0926 43.4371 22.6445Z" fill="#2D2D30"/>
<path d="M9.74039 22.6445H4.56371C4.53287 23.0926 4.51599 23.5445 4.51599 24.0003C4.51599 24.4069 4.52996 24.8104 4.55452 25.2109H9.74029C10.449 25.2109 11.0234 24.6365 11.0234 23.9278C11.0235 23.219 10.4491 22.6445 9.74039 22.6445Z" fill="#3E3D42"/>
<path d="M30.8105 28.821C30.6112 28.821 30.4092 28.7745 30.2201 28.6763L23.4089 25.1387C23.084 24.9699 22.8466 24.6706 22.7566 24.3156C22.6666 23.9609 22.7324 23.5844 22.9375 23.2812L30.9731 11.3976C31.37 10.8104 32.1678 10.6564 32.7549 11.0533C33.3419 11.4503 33.4961 12.248 33.0991 12.8351L25.8704 23.5252L31.4032 26.3988C32.0319 26.7254 32.277 27.5001 31.9505 28.1289C31.7218 28.569 31.2741 28.821 30.8105 28.821Z" fill="#3E3D42"/>
<path d="M24.0003 4.51562V10.9505C24.709 10.9505 25.2834 10.3761 25.2834 9.66746V4.55875C24.8592 4.53109 24.4317 4.51562 24.0003 4.51562Z" fill="#2D2D30"/>
<path d="M24.0003 36.9043V43.4844C24.4311 43.4844 24.8581 43.469 25.2819 43.4415C25.2821 43.4315 25.2834 43.4219 25.2834 43.412V38.1875C25.2836 37.4787 24.709 36.9043 24.0003 36.9043Z" fill="#2D2D30"/>
<path d="M14.8813 33.7763C14.7405 33.7763 14.6 33.7213 14.4944 33.612C14.2885 33.3984 14.2948 33.0584 14.5084 32.8525L23.7317 23.963C23.9453 23.757 24.2854 23.7633 24.4911 23.9769C24.6971 24.1905 24.6907 24.5305 24.4772 24.7364L15.2539 33.6259C15.1498 33.7263 15.0156 33.7763 14.8813 33.7763Z" fill="#E55E79"/>
<path d="M24 27.3323C25.8406 27.3323 27.3327 25.8403 27.3327 23.9997C27.3327 22.1591 25.8406 20.667 24 20.667C22.1594 20.667 20.6673 22.1591 20.6673 23.9997C20.6673 25.8403 22.1594 27.3323 24 27.3323Z" fill="#0F8C96"/>
</g>
<defs>
<clipPath id="clip0_322_3966">
<rect width="48" height="48" fill="white"/>
</clipPath>
</defs>
</svg>
