<svg width="644" height="846" viewBox="0 0 644 846" fill="none" xmlns="http://www.w3.org/2000/svg">
<circle cx="526.763" cy="836.01" r="6.90838" transform="rotate(-43 526.763 836.01)" fill="#E8D97C"/>
<circle opacity="0.95" cx="609.987" cy="797.297" r="4.31773" transform="rotate(-155 609.987 797.297)" fill="#E18194"/>
<circle opacity="0.87" cx="67.818" cy="755.941" r="2.15887" transform="rotate(-133 67.818 755.941)" fill="#89B929"/>
<circle opacity="0.78" cx="464.726" cy="712.698" r="3.88596" transform="rotate(13 464.726 712.698)" fill="#E8D97C"/>
<circle opacity="0.77" cx="384.63" cy="690.199" r="5.61306" transform="rotate(-62 384.63 690.199)" fill="#89B929"/>
<circle opacity="0.72" cx="121.689" cy="733.953" r="6.04483" transform="rotate(130 121.689 733.953)" fill="#E18194"/>
<circle opacity="0.99" cx="323.994" cy="781.552" r="3.88596" transform="rotate(-9 323.994 781.552)" fill="#E8D97C"/>
<circle opacity="0.79" cx="37.9793" cy="669.932" r="6.4766" transform="rotate(-123 37.9793 669.932)" fill="#11A5B1"/>
<circle opacity="0.7" cx="261.252" cy="761.328" r="4.74951" transform="rotate(-17 261.252 761.328)" fill="#11A5B1"/>
<circle opacity="0.76" cx="492.262" cy="607.687" r="5.18128" transform="rotate(174 492.262 607.687)" fill="#89B929"/>
<circle opacity="0.7" cx="166.52" cy="561.189" r="4.74951" transform="rotate(-158 166.52 561.189)" fill="#E8D97C"/>
<circle opacity="0.87" cx="187.726" cy="549.732" r="3.88596" transform="rotate(-107 187.726 549.732)" fill="#89B929"/>
<circle opacity="0.87" cx="439.354" cy="493.338" r="3.02241" transform="rotate(137 439.354 493.338)" fill="#11A5B1"/>
<circle opacity="0.98" cx="422.514" cy="532.251" r="6.90838" transform="rotate(-156 422.514 532.251)" fill="#E18194"/>
<circle opacity="0.92" cx="583.791" cy="523.453" r="4.74951" transform="rotate(72 583.791 523.453)" fill="#E18194"/>
<circle opacity="0.81" cx="272.833" cy="492.711" r="4.31774" transform="rotate(26 272.833 492.711)" fill="#E8D97C"/>
<circle opacity="0.83" cx="12.904" cy="424.813" r="3.88596" transform="rotate(105 12.904 424.813)" fill="#E8D97C"/>
<circle opacity="0.73" cx="496.095" cy="399.955" r="3.02241" transform="rotate(88 496.095 399.955)" fill="#11A5B1"/>
<circle opacity="0.75" cx="623.073" cy="387.42" r="2.59064" transform="rotate(-140 623.073 387.42)" fill="#89B929"/>
<circle opacity="0.73" cx="319.744" cy="373.295" r="6.4766" transform="rotate(-11 319.744 373.295)" fill="#E18194"/>
<circle opacity="0.73" cx="57.0403" cy="314.797" r="2.59064" transform="rotate(-27 57.0403 314.797)" fill="#11A5B1"/>
<circle opacity="0.77" cx="250.777" cy="298.602" r="3.02241" transform="rotate(133 250.777 298.602)" fill="#89B929"/>
<circle opacity="0.76" cx="147.66" cy="301.108" r="5.61306" transform="rotate(63 147.66 301.108)" fill="#E18194"/>
<circle opacity="0.77" cx="639.041" cy="291.056" r="4.31774" transform="rotate(-6 639.041 291.056)" fill="#E18194"/>
<circle opacity="0.79" cx="405.57" cy="300.802" r="7.77192" transform="rotate(-123 405.57 300.802)" fill="#11A5B1"/>
<circle opacity="0.98" cx="100.121" cy="202.81" r="2.15887" transform="rotate(-25 100.121 202.81)" fill="#89B929"/>
<circle opacity="0.71" cx="163.512" cy="163.633" r="5.61306" transform="rotate(-73 163.512 163.633)" fill="#89B929"/>
<circle opacity="0.85" cx="254.512" cy="149.534" r="3.02242" transform="rotate(56 254.512 149.534)" fill="#11A5B1"/>
<circle opacity="0.91" cx="605.052" cy="156.081" r="6.04483" transform="rotate(-111 605.052 156.081)" fill="#89B929"/>
<circle opacity="0.74" cx="35.2767" cy="145.151" r="3.45419" transform="rotate(144 35.2767 145.151)" fill="#11A5B1"/>
<circle opacity="0.8" cx="7.74752" cy="132.143" r="6.04483" transform="rotate(70 7.74752 132.143)" fill="#E8D97C"/>
<circle opacity="0.9" cx="464.925" cy="193.415" r="5.61306" transform="rotate(-121 464.925 193.415)" fill="#E8D97C"/>
<circle opacity="0.77" cx="401.179" cy="86.9411" r="6.4766" transform="rotate(-6 401.179 86.9411)" fill="#E18194"/>
<circle opacity="0.77" cx="320.045" cy="80.1772" r="3.45419" transform="rotate(-61 320.045 80.1772)" fill="#E8D97C"/>
<circle opacity="0.74" cx="6.28418" cy="73.6405" r="3.02241" transform="rotate(-155 6.28418 73.6405)" fill="#89B929"/>
<circle opacity="0.79" cx="301.731" cy="67.6925" r="6.4766" transform="rotate(-123 301.731 67.6925)" fill="#11A5B1"/>
<circle opacity="0.81" cx="178.537" cy="56.6065" r="4.31774" transform="rotate(26 178.537 56.6065)" fill="#E8D97C"/>
<circle opacity="0.83" cx="596.779" cy="60.9968" r="6.4766" transform="rotate(-59 596.779 60.9968)" fill="#E18194"/>
<circle opacity="0.92" cx="444.28" cy="21.9364" r="3.45419" transform="rotate(-35 444.28 21.9364)" fill="#11A5B1"/>
<circle opacity="0.79" cx="86.5286" cy="8.95919" r="6.4766" transform="rotate(-123 86.5286 8.95919)" fill="#E18194"/>
</svg>
