<svg width="24" height="24" viewBox="0 0 24 24" fill="none" xmlns="http://www.w3.org/2000/svg">
<path d="M22.0807 10.0282C22.0806 11.695 21.5863 13.3244 20.6602 14.7103C19.7341 16.0961 18.4178 17.1762 16.8779 17.814C15.3379 18.4518 13.6434 18.6187 12.0086 18.2934C10.3738 17.9682 8.87223 17.1655 7.69364 15.9868C6.51506 14.8082 5.71245 13.3065 5.38731 11.6717C5.06216 10.0369 5.22909 8.34245 5.86697 6.80252C6.50485 5.2626 7.58505 3.9464 8.97096 3.02038C10.3569 2.09436 11.9862 1.6001 13.6531 1.6001C14.7598 1.6001 15.8558 1.81811 16.8783 2.24167C17.9008 2.66523 18.8299 3.28605 19.6125 4.06868C20.3951 4.85131 21.0158 5.78042 21.4393 6.80296C21.8628 7.8255 22.0808 8.92145 22.0807 10.0282Z" fill="#FAFAFA"/>
<path d="M13.0343 18.2481H14.253C14.6877 18.2482 15.1216 18.2122 15.5503 18.1407L17.8357 17.6117C18.8671 17.4395 19.8562 17.072 20.7498 16.5289C21.0377 16.3538 21.3761 16.2806 21.7106 16.3208C22.0452 16.361 22.3565 16.5124 22.5948 16.7506C22.753 16.9089 22.874 17.1005 22.9488 17.3114C23.0236 17.5223 23.0504 17.7473 23.0273 17.9699C23.0041 18.1925 22.9316 18.4071 22.8149 18.5981C22.6983 18.7891 22.5405 18.9517 22.3531 19.074L22.3441 19.0799C21.4683 19.6514 20.4914 20.0504 19.466 20.2555L15.7173 21.1817C15.2087 21.2834 14.6913 21.3346 14.1727 21.3346H6.84248C6.57162 21.3346 6.30509 21.2666 6.06736 21.1368C5.81253 20.9976 5.59987 20.7923 5.45172 20.5426C5.30357 20.2929 5.22539 20.0079 5.22539 19.7175L4.7168 19.688V16.1972L5.22539 16.1889C5.22539 15.8985 5.30357 15.6135 5.45172 15.3638C5.59987 15.1141 5.81253 14.9088 6.06736 14.7696C6.30509 14.6398 6.57162 14.5718 6.84248 14.5718H13.2533C13.7408 14.5718 14.2083 14.7654 14.553 15.1102C14.8978 15.4549 15.0914 15.9224 15.0915 16.4099C15.0914 16.8974 14.8978 17.365 14.553 17.7097C14.2083 18.0544 13.7408 18.2481 13.2533 18.2481" fill="#FFE5C2"/>
<path d="M13.2535 18.3376L9.90621 18.5292C9.83195 18.5329 9.75926 18.5071 9.70396 18.4574C9.64866 18.4077 9.61524 18.3382 9.611 18.264C9.60675 18.1898 9.63201 18.1169 9.68127 18.0612C9.73054 18.0055 9.79982 17.9716 9.874 17.9667C9.88473 17.9662 9.89548 17.9662 9.90621 17.9667L13.2535 18.1585C13.2763 18.1598 13.2977 18.1699 13.3134 18.1865C13.3291 18.2032 13.3378 18.2252 13.3378 18.248C13.3378 18.2709 13.3291 18.2929 13.3134 18.3095C13.2977 18.3262 13.2763 18.3362 13.2535 18.3376Z" fill="#FED2A4"/>
<path d="M3.99841 13.5063H2.19195C1.51403 13.5063 0.964478 14.0559 0.964478 14.7338V21.1722C0.964478 21.8502 1.51403 22.3997 2.19195 22.3997H3.99841C4.67633 22.3997 5.22588 21.8502 5.22588 21.1722V14.7338C5.22588 14.0559 4.67633 13.5063 3.99841 13.5063Z" fill="#11A5B1"/>
<path d="M9.39152 8.39746H7.47363C7.39904 8.39746 7.3275 8.42709 7.27476 8.47984C7.22201 8.53258 7.19238 8.60412 7.19238 8.67871V11.378C7.19238 11.4526 7.22201 11.5241 7.27476 11.5768C7.3275 11.6296 7.39904 11.6592 7.47363 11.6592C7.54822 11.6592 7.61976 11.6296 7.67251 11.5768C7.72525 11.5241 7.75488 11.4526 7.75488 11.378V10.3096H8.82326C8.89785 10.3096 8.96939 10.28 9.02213 10.2272C9.07488 10.1745 9.10451 10.1029 9.10451 10.0283C9.10451 9.95374 9.07488 9.88221 9.02213 9.82946C8.96939 9.77672 8.89785 9.74709 8.82326 9.74709H7.75488V8.95996H9.39152C9.46611 8.95996 9.53765 8.93033 9.5904 8.87758C9.64314 8.82484 9.67277 8.7533 9.67277 8.67871C9.67277 8.60412 9.64314 8.53258 9.5904 8.47984C9.53765 8.42709 9.46611 8.39746 9.39152 8.39746Z" fill="#4D4D4D"/>
<path d="M13.2478 9.35322C13.2476 9.09968 13.1468 8.85658 12.9675 8.6773C12.7882 8.49802 12.5451 8.3972 12.2916 8.39697H10.9066C10.832 8.39697 10.7605 8.4266 10.7077 8.47935C10.655 8.53209 10.6254 8.60363 10.6254 8.67822V11.3775C10.6254 11.4521 10.655 11.5236 10.7077 11.5763C10.7605 11.6291 10.832 11.6587 10.9066 11.6587C10.9812 11.6587 11.0527 11.6291 11.1055 11.5763C11.1582 11.5236 11.1879 11.4521 11.1879 11.3775V10.3093H11.617C11.9002 10.3096 12.1718 10.4223 12.3721 10.6226C12.5723 10.8229 12.685 11.0944 12.6853 11.3777C12.6853 11.4523 12.715 11.5238 12.7677 11.5765C12.8205 11.6293 12.892 11.6589 12.9666 11.6589C13.0412 11.6589 13.1127 11.6293 13.1655 11.5765C13.2182 11.5238 13.2478 11.4523 13.2478 11.3777C13.2479 11.1567 13.2029 10.9381 13.1157 10.7351C13.0284 10.5321 12.9007 10.349 12.7403 10.197C12.8934 10.1156 13.0215 9.99406 13.1109 9.84543C13.2003 9.69681 13.2477 9.52667 13.2478 9.35322ZM11.617 9.74697H11.1879V8.95966H12.2918C12.3941 8.96282 12.4911 9.00567 12.5624 9.07913C12.6336 9.15259 12.6734 9.2509 12.6734 9.35322C12.6734 9.45555 12.6336 9.55385 12.5624 9.62732C12.4911 9.70078 12.3941 9.74363 12.2918 9.74679H11.759C11.7451 9.74688 11.7312 9.74801 11.7175 9.75016C11.6842 9.74814 11.6508 9.74679 11.617 9.74679V9.74697Z" fill="#4D4D4D"/>
<path d="M16.4002 8.95996C16.4748 8.95996 16.5463 8.93033 16.5991 8.87758C16.6518 8.82484 16.6814 8.7533 16.6814 8.67871C16.6814 8.60412 16.6518 8.53258 16.5991 8.47984C16.5463 8.42709 16.4748 8.39746 16.4002 8.39746H14.3402C14.2656 8.39746 14.1941 8.42709 14.1413 8.47984C14.0886 8.53258 14.059 8.60412 14.059 8.67871V11.378C14.059 11.4526 14.0886 11.5241 14.1413 11.5768C14.1941 11.6296 14.2656 11.6592 14.3402 11.6592H16.4002C16.4748 11.6592 16.5463 11.6296 16.5991 11.5768C16.6518 11.5241 16.6814 11.4526 16.6814 11.378C16.6814 11.3034 16.6518 11.2318 16.5991 11.1791C16.5463 11.1263 16.4748 11.0967 16.4002 11.0967H14.6215V10.3096H15.7609C15.8355 10.3096 15.907 10.28 15.9598 10.2272C16.0125 10.1745 16.0421 10.1029 16.0421 10.0283C16.0421 9.95374 16.0125 9.88221 15.9598 9.82946C15.907 9.77672 15.8355 9.74709 15.7609 9.74709H14.6215V8.95996H16.4002Z" fill="#4D4D4D"/>
<path d="M19.8332 11.0967H18.0545V10.3096H19.1939C19.2685 10.3096 19.34 10.28 19.3928 10.2272C19.4455 10.1745 19.4751 10.1029 19.4751 10.0283C19.4751 9.95374 19.4455 9.88221 19.3928 9.82946C19.34 9.77672 19.2685 9.74709 19.1939 9.74709H18.0545V8.95996H19.8332C19.9078 8.95996 19.9793 8.93033 20.0321 8.87758C20.0848 8.82484 20.1144 8.7533 20.1144 8.67871C20.1144 8.60412 20.0848 8.53258 20.0321 8.47984C19.9793 8.42709 19.9078 8.39746 19.8332 8.39746H17.7733C17.6987 8.39746 17.6271 8.42709 17.5744 8.47984C17.5216 8.53258 17.492 8.60412 17.492 8.67871V11.378C17.492 11.4526 17.5216 11.5241 17.5744 11.5768C17.6271 11.6296 17.6987 11.6592 17.7733 11.6592H19.8332C19.9078 11.6592 19.9793 11.6296 20.0321 11.5768C20.0848 11.5241 20.1144 11.4526 20.1144 11.378C20.1144 11.3034 20.0848 11.2318 20.0321 11.1791C19.9793 11.1263 19.9078 11.0967 19.8332 11.0967Z" fill="#4D4D4D"/>
</svg>
