<svg width="48" height="48" viewBox="0 0 48 48" fill="none" xmlns="http://www.w3.org/2000/svg">
<path d="M44.162 20.0564C44.1618 23.3901 43.1731 26.6488 41.3209 29.4205C39.4687 32.1922 36.8362 34.3525 33.7562 35.6281C30.6763 36.9036 27.2873 37.2373 24.0178 36.5868C20.7482 35.9364 17.745 34.331 15.3878 31.9737C13.0306 29.6164 11.4254 26.6131 10.7751 23.3435C10.1248 20.0739 10.4587 16.6849 11.7345 13.605C13.0102 10.5252 15.1706 7.89281 17.9424 6.04076C20.7143 4.18872 23.973 3.2002 27.3066 3.2002C29.5202 3.20021 31.7121 3.63622 33.7571 4.48334C35.8021 5.33047 37.6603 6.5721 39.2255 8.13736C40.7906 9.70262 42.0322 11.5608 42.8792 13.6059C43.7262 15.651 44.1621 17.8429 44.162 20.0564Z" fill="#FAFAFA"/>
<path d="M26.069 36.4963H28.5065C29.3759 36.4963 30.2437 36.4244 31.1012 36.2813L35.6719 35.2233C37.7347 34.879 39.7129 34.144 41.5001 33.0577C42.076 32.7077 42.7527 32.5611 43.4218 32.6416C44.0909 32.722 44.7136 33.0247 45.1901 33.5012C45.5066 33.8178 45.7485 34.2009 45.8981 34.6228C46.0478 35.0446 46.1014 35.4946 46.0551 35.9398C46.0088 36.385 45.8637 36.8142 45.6304 37.1963C45.3972 37.5783 45.0816 37.9035 44.7067 38.1481L44.6887 38.1599C42.9371 39.3028 40.9834 40.1008 38.9325 40.511L31.4351 42.3633C30.4179 42.5668 29.3832 42.6692 28.3459 42.6692H13.6855C13.1438 42.6692 12.6107 42.5331 12.1353 42.2735C11.6256 41.9951 11.2003 41.5847 10.904 41.0852C10.6077 40.5857 10.4513 40.0157 10.4513 39.435L9.43414 39.3761V32.3943L10.4513 32.3778C10.4513 31.7971 10.6077 31.2271 10.904 30.7276C11.2003 30.2281 11.6256 29.8177 12.1353 29.5393C12.6107 29.2796 13.1438 29.1436 13.6855 29.1436H26.507C27.4821 29.1436 28.4172 29.5309 29.1066 30.2203C29.7961 30.9098 30.1834 31.8448 30.1835 32.8199C30.1834 33.7949 29.7961 34.73 29.1066 35.4194C28.4172 36.1089 27.4821 36.4962 26.507 36.4962" fill="#FFE5C2"/>
<path d="M26.5071 36.6752L19.8125 37.0585C19.664 37.0659 19.5186 37.0142 19.408 36.9148C19.2974 36.8155 19.2306 36.6764 19.2221 36.528C19.2136 36.3795 19.2641 36.2337 19.3626 36.1224C19.4611 36.011 19.5997 35.9431 19.7481 35.9335C19.7695 35.9323 19.791 35.9323 19.8125 35.9335L26.5071 36.3169C26.5527 36.3197 26.5956 36.3398 26.6269 36.3731C26.6582 36.4063 26.6757 36.4503 26.6757 36.496C26.6757 36.5418 26.6582 36.5857 26.6269 36.619C26.5956 36.6523 26.5527 36.6724 26.5071 36.6752Z" fill="#FED2A4"/>
<path d="M7.9964 27.0127H4.38347C3.02764 27.0127 1.92853 28.1118 1.92853 29.4676V42.3445C1.92853 43.7003 3.02764 44.7994 4.38347 44.7994H7.9964C9.35223 44.7994 10.4513 43.7003 10.4513 42.3445V29.4676C10.4513 28.1118 9.35223 27.0127 7.9964 27.0127Z" fill="#11A5B1"/>
<path d="M18.7827 16.7939H14.9469C14.7977 16.7939 14.6547 16.8532 14.5492 16.9587C14.4437 17.0642 14.3844 17.2073 14.3844 17.3564V22.7549C14.3844 22.9041 14.4437 23.0472 14.5492 23.1527C14.6547 23.2582 14.7977 23.3174 14.9469 23.3174C15.0961 23.3174 15.2392 23.2582 15.3447 23.1527C15.4502 23.0472 15.5094 22.9041 15.5094 22.7549V20.6182H17.6462C17.7954 20.6182 17.9384 20.5589 18.0439 20.4534C18.1494 20.348 18.2087 20.2049 18.2087 20.0557C18.2087 19.9065 18.1494 19.7634 18.0439 19.6579C17.9384 19.5525 17.7954 19.4932 17.6462 19.4932H15.5094V17.9189H18.7827C18.9319 17.9189 19.075 17.8597 19.1805 17.7542C19.2859 17.6487 19.3452 17.5056 19.3452 17.3564C19.3452 17.2073 19.2859 17.0642 19.1805 16.9587C19.075 16.8532 18.9319 16.7939 18.7827 16.7939Z" fill="#4D4D4D"/>
<path d="M26.4958 18.7064C26.4953 18.1994 26.2937 17.7132 25.9351 17.3546C25.5766 16.996 25.0904 16.7944 24.5833 16.7939H21.8134C21.6642 16.7939 21.5211 16.8532 21.4156 16.9587C21.3101 17.0642 21.2509 17.2073 21.2509 17.3564V22.7549C21.2509 22.9041 21.3101 23.0472 21.4156 23.1527C21.5211 23.2582 21.6642 23.3174 21.8134 23.3174C21.9625 23.3174 22.1056 23.2582 22.2111 23.1527C22.3166 23.0472 22.3759 22.9041 22.3759 22.7549V20.6186H23.234C23.8005 20.6192 24.3437 20.8445 24.7442 21.2451C25.1448 21.6457 25.3701 22.1888 25.3708 22.7553C25.3708 22.9045 25.4301 23.0476 25.5355 23.1531C25.641 23.2586 25.7841 23.3178 25.9333 23.3178C26.0825 23.3178 26.2256 23.2586 26.331 23.1531C26.4365 23.0476 26.4958 22.9045 26.4958 22.7553C26.4959 22.3134 26.406 21.8761 26.2314 21.4701C26.0569 21.0641 25.8014 20.698 25.4807 20.394C25.787 20.2312 26.0432 19.9881 26.222 19.6909C26.4008 19.3936 26.4955 19.0533 26.4958 18.7064ZM23.234 19.4939H22.3759V17.9193H24.5838C24.7883 17.9256 24.9824 18.0113 25.1248 18.1583C25.2673 18.3052 25.347 18.5018 25.347 18.7064C25.347 18.9111 25.2673 19.1077 25.1248 19.2546C24.9824 19.4016 24.7883 19.4873 24.5838 19.4936H23.5182C23.4904 19.4938 23.4626 19.496 23.4351 19.5003C23.3686 19.4963 23.3016 19.4936 23.234 19.4936V19.4939Z" fill="#4D4D4D"/>
<path d="M32.7998 17.9189C32.949 17.9189 33.0921 17.8597 33.1976 17.7542C33.3031 17.6487 33.3623 17.5056 33.3623 17.3564C33.3623 17.2073 33.3031 17.0642 33.1976 16.9587C33.0921 16.8532 32.949 16.7939 32.7998 16.7939H28.6799C28.5307 16.7939 28.3876 16.8532 28.2822 16.9587C28.1767 17.0642 28.1174 17.2073 28.1174 17.3564V22.7549C28.1174 22.9041 28.1767 23.0472 28.2822 23.1527C28.3876 23.2582 28.5307 23.3174 28.6799 23.3174H32.7998C32.949 23.3174 33.0921 23.2582 33.1976 23.1527C33.3031 23.0472 33.3623 22.9041 33.3623 22.7549C33.3623 22.6058 33.3031 22.4627 33.1976 22.3572C33.0921 22.2517 32.949 22.1924 32.7998 22.1924H29.2424V20.6182H31.5213C31.6705 20.6182 31.8135 20.5589 31.919 20.4534C32.0245 20.348 32.0838 20.2049 32.0838 20.0557C32.0838 19.9065 32.0245 19.7634 31.919 19.6579C31.8135 19.5525 31.6705 19.4932 31.5213 19.4932H29.2424V17.9189H32.7998Z" fill="#4D4D4D"/>
<path d="M39.6663 22.1924H36.1089V20.6182H38.3877C38.5369 20.6182 38.68 20.5589 38.7854 20.4534C38.8909 20.348 38.9502 20.2049 38.9502 20.0557C38.9502 19.9065 38.8909 19.7634 38.7854 19.6579C38.68 19.5525 38.5369 19.4932 38.3877 19.4932H36.1089V17.9189H39.6663C39.8154 17.9189 39.9585 17.8597 40.064 17.7542C40.1695 17.6487 40.2288 17.5056 40.2288 17.3564C40.2288 17.2073 40.1695 17.0642 40.064 16.9587C39.9585 16.8532 39.8154 16.7939 39.6663 16.7939H35.5464C35.3972 16.7939 35.2542 16.8532 35.1487 16.9587C35.0432 17.0642 34.9839 17.2073 34.9839 17.3564V22.7549C34.9839 22.9041 35.0432 23.0472 35.1487 23.1527C35.2542 23.2582 35.3972 23.3174 35.5464 23.3174H39.6663C39.8154 23.3174 39.9585 23.2582 40.064 23.1527C40.1695 23.0472 40.2288 22.9041 40.2288 22.7549C40.2288 22.6058 40.1695 22.4627 40.064 22.3572C39.9585 22.2517 39.8154 22.1924 39.6663 22.1924Z" fill="#4D4D4D"/>
</svg>
