<svg width="24" height="24" viewBox="0 0 24 24" fill="none" xmlns="http://www.w3.org/2000/svg">
<g clip-path="url(#clip0_322_3820)">
<path d="M22.8177 21.4898H1.18182V6.02117C1.18182 5.55643 1.55857 5.17969 2.02331 5.17969H22.0904C22.4921 5.17969 22.8177 5.5053 22.8177 5.907V21.4898Z" fill="#8E9EAF"/>
<path d="M6.07557 5.17969H2.02331C1.55857 5.17969 1.18182 5.55643 1.18182 6.02117V21.4898H5.23409V6.02117C5.23409 5.55643 5.61084 5.17969 6.07557 5.17969Z" fill="#7A8896"/>
<path d="M22.6965 22.5353H1.30346C0.583595 22.5353 0 21.9518 0 21.2319V20.9292C0 20.8113 0.0954921 20.7158 0.213333 20.7158H23.7867C23.9045 20.7158 24 20.8113 24 20.9292V21.2319C24 21.9518 23.4164 22.5353 22.6965 22.5353Z" fill="#A4B5C7"/>
<path d="M4.18462 21.2314V20.9287C4.18462 20.8108 4.28012 20.7153 4.39796 20.7153H0.213333C0.0954921 20.7153 0 20.8108 0 20.9287V21.2314C0 21.9513 0.583595 22.5349 1.30346 22.5349H5.48808C4.76822 22.5349 4.18462 21.9513 4.18462 21.2314Z" fill="#8E9EAF"/>
<path d="M22.0905 5.17969H14.3947V8.98017C14.3947 9.32155 14.5373 9.64953 14.786 9.88004C15.015 10.0923 15.3131 10.2092 15.6255 10.2092C15.9827 10.2092 16.3217 10.0527 16.5557 9.78L17.0122 9.24782H22.3551C22.5131 9.24782 22.6675 9.23292 22.8179 9.20593V5.90696C22.8179 5.5053 22.4922 5.17969 22.0905 5.17969Z" fill="#7A8896"/>
<path d="M20.9918 6.63086H3.00794C2.80094 6.63086 2.63318 6.79867 2.63318 7.00562V18.8896C2.63318 19.0966 2.80099 19.2644 3.00794 19.2644H8.98316L9.44253 18.8064H14.598L15.0166 19.2644H20.9918C21.1988 19.2644 21.3666 19.0966 21.3666 18.8896V7.00562C21.3666 6.79862 21.1988 6.63086 20.9918 6.63086Z" fill="#DFF6FD"/>
<path d="M5.2342 6.63086H3.00794C2.80094 6.63086 2.63318 6.79867 2.63318 7.00562V18.8896C2.63318 19.0966 2.80099 19.2644 3.00794 19.2644H5.2342V6.63086Z" fill="#C8EFFE"/>
<path d="M21.3666 7.00562C21.3666 6.79862 21.1988 6.63086 20.9918 6.63086H14.3947V8.98009C14.3947 9.32147 14.5373 9.64945 14.786 9.87996C15.015 10.0922 15.3131 10.2091 15.6255 10.2091C15.9827 10.2091 16.3217 10.0527 16.5557 9.77992L17.0122 9.24775H21.3667V7.00562H21.3666Z" fill="#C8EFFE"/>
<path d="M12.8164 15.4973L14.6051 16.9866C14.8652 17.2037 15.0158 17.5258 15.0158 17.8656V19.2646H8.9823V17.8656C8.9823 17.5258 9.13279 17.2036 9.393 16.9866L11.1835 15.4912L12.8164 15.4973Z" fill="#EC8A9D"/>
<path d="M13.1857 15.8047L12.8165 15.4973L11.1835 15.4912L9.393 16.9866C9.13284 17.2037 8.9823 17.5258 8.9823 17.8656V19.2646H10.1918V18.1762C10.1918 17.8364 10.3423 17.5142 10.6025 17.2971L10.8793 17.066C11.0554 16.9189 11.2948 16.8649 11.5133 16.9348C11.6665 16.9838 11.8296 17.0104 11.9991 17.0104C12.6577 17.0104 13.2248 16.612 13.4728 16.0438L13.1857 15.8047Z" fill="#D97B8E"/>
<path d="M12.8808 15.403C12.8808 15.8899 12.4861 16.2846 11.9991 16.2846C11.5122 16.2846 11.1174 15.8899 11.1174 15.403V13.2061H12.8808V15.403H12.8808Z" fill="#FFE5C2"/>
<path d="M14.056 10.5134C14.056 10.0543 13.6839 9.68216 13.2248 9.68216H10.8908L10.1669 9.4443C10.0615 9.40967 9.95319 9.48818 9.95319 9.59906V12.2057H14.056V10.5134Z" fill="#A79BA7"/>
<path d="M11.0304 10.4882C11.0304 10.3773 11.1388 10.2988 11.2441 10.3334L11.8585 10.5353C11.9311 10.5592 12.007 10.5713 12.0834 10.5713H14.056V10.5134C14.056 10.0543 13.6839 9.68216 13.2248 9.68216H10.8908L10.1669 9.4443C10.0615 9.40967 9.95319 9.48818 9.95319 9.59905V12.2057H11.0304L11.0304 10.4882Z" fill="#918291"/>
<path d="M11.7578 14.6245H11.1174V15.3804C11.1174 15.8128 11.4201 16.1963 11.846 16.2712C12.0152 16.3009 12.1773 16.2801 12.3207 16.2242C12.1137 16.1434 11.9432 15.812 11.8465 15.5782C11.801 15.4684 11.883 15.3503 12.0018 15.3504H12.0043C12.3133 15.3504 12.6086 15.2921 12.8809 15.1868V14.6343L11.7578 14.6245Z" fill="#FED2A4"/>
<path d="M12.0046 14.9634C10.8716 14.9634 9.95319 14.045 9.95319 12.912V11.6064H14.056V12.912C14.056 14.045 13.1376 14.9634 12.0046 14.9634Z" fill="#FFE5C2"/>
<path d="M11.006 12.694V11.6064H9.95319V12.912C9.95319 14.045 10.8716 14.9634 12.0046 14.9634C12.3388 14.9634 12.6524 14.8845 12.9312 14.7427C11.8563 14.6783 11.006 13.7851 11.006 12.694Z" fill="#FED2A4"/>
<path d="M22.355 8.2801H16.8583C16.6736 8.2801 16.4982 8.36074 16.3779 8.50088L15.8212 9.14983C15.6635 9.3337 15.3621 9.22215 15.3621 8.97989V3.11018C15.3621 2.20174 16.0985 1.46533 17.007 1.46533H22.355C23.2634 1.46533 23.9998 2.20174 23.9998 3.11018V6.63525C23.9998 7.54369 23.2634 8.2801 22.355 8.2801Z" fill="#9FD72F"/>
<path d="M17.2098 4.05813C17.2098 3.1497 17.9462 2.41329 18.8546 2.41329L23.8454 2.41363C23.5831 1.85369 23.0142 1.46533 22.355 1.46533H17.007C16.0985 1.46533 15.3621 2.20174 15.3621 3.11018V8.97994C15.3621 9.2222 15.6635 9.33375 15.8212 9.14988L16.3779 8.50088C16.4982 8.36074 16.6736 8.2801 16.8583 8.2801H17.2098V4.05813Z" fill="#7EAA26"/>
</g>
<defs>
<clipPath id="clip0_322_3820">
<rect width="24" height="24" fill="white"/>
</clipPath>
</defs>
</svg>
