<svg width="48" height="48" viewBox="0 0 48 48" fill="none" xmlns="http://www.w3.org/2000/svg">
<path d="M35.775 5.1675L21.18 1.5225C21.06 1.4925 20.9325 1.4925 20.8125 1.5225L6.225 5.1675C3.885 5.7525 2.25 7.845 2.25 10.26V25.2375C2.25 30.3375 4.7325 35.145 8.895 38.0925L20.565 46.3575C20.6925 46.4475 20.85 46.4925 21 46.4925C21.15 46.4925 21.3 46.4475 21.435 46.3575L33.105 38.0925C37.2675 35.145 39.75 30.3375 39.75 25.2375V10.26C39.75 7.845 38.115 5.7525 35.775 5.1675Z" fill="#1AC5D3"/>
<path d="M35.0475 8.07734L21.1875 4.61234C21.0675 4.58234 20.94 4.58234 20.82 4.61234L6.96001 8.07734C5.95501 8.32484 5.25751 9.22484 5.25751 10.2598V25.2373C5.25751 29.3623 7.26751 33.2548 10.635 35.6398L20.5725 42.6748C20.7 42.7648 20.8575 42.8098 21.0075 42.8098C21.1575 42.8098 21.3075 42.7648 21.4425 42.6748L31.38 35.6398C34.7475 33.2548 36.7575 29.3623 36.7575 25.2373V10.2598C36.7575 9.22484 36.06 8.32484 35.055 8.07734H35.0475Z" fill="#11A5B1"/>
<path d="M21 19.5C23.8995 19.5 26.25 17.1495 26.25 14.25C26.25 11.3505 23.8995 9 21 9C18.1005 9 15.75 11.3505 15.75 14.25C15.75 17.1495 18.1005 19.5 21 19.5Z" fill="white"/>
<path d="M24 21H18C14.28 21 11.25 24.03 11.25 27.75V30C11.25 31.6575 12.5925 33 14.25 33H27.75C29.4075 33 30.75 31.6575 30.75 30V27.75C30.75 24.03 27.72 21 24 21Z" fill="white"/>
<path d="M35.25 46.5C41.049 46.5 45.75 41.799 45.75 36C45.75 30.201 41.049 25.5 35.25 25.5C29.451 25.5 24.75 30.201 24.75 36C24.75 41.799 29.451 46.5 35.25 46.5Z" fill="#FED866"/>
<path d="M33 40.125C32.805 40.125 32.6175 40.05 32.4675 39.9075L29.4675 36.9075C29.175 36.615 29.175 36.1425 29.4675 35.85C29.76 35.5575 30.2325 35.5575 30.525 35.85L33.0225 38.3475L39.99 32.07C40.2975 31.7925 40.77 31.815 41.0475 32.1225C41.325 32.43 41.3025 32.9025 40.995 33.18L33.495 39.93C33.3525 40.0575 33.1725 40.125 32.9925 40.125H33Z" fill="white"/>
</svg>
