<svg width="20" height="19" viewBox="0 0 20 19" fill="none" xmlns="http://www.w3.org/2000/svg">
<path d="M9.43933 0.27861C9.62273 -0.0930127 10.1527 -0.0930127 10.3361 0.27861L13.0042 5.6848C13.077 5.83237 13.2178 5.93466 13.3806 5.95832L19.3467 6.82525C19.7568 6.88484 19.9206 7.38883 19.6238 7.67809L15.3067 11.8862C15.1889 12.0011 15.1351 12.1666 15.1629 12.3288L16.1821 18.2708C16.2521 18.6792 15.8234 18.9907 15.4566 18.7979L10.1204 15.9924C9.9747 15.9159 9.80069 15.9159 9.65502 15.9924L4.31879 18.7979C3.95198 18.9907 3.52326 18.6792 3.59332 18.2708L4.61245 12.3288C4.64027 12.1666 4.58649 12.0011 4.46865 11.8862L0.151549 7.67809C-0.14521 7.38883 0.0185453 6.88484 0.428656 6.82525L6.39474 5.95832C6.5576 5.93466 6.69838 5.83237 6.77121 5.6848L9.43933 0.27861Z" fill="url(#paint0_linear_322_3875)"/>
<defs>
<linearGradient id="paint0_linear_322_3875" x1="-7.82231" y1="10.3701" x2="24.1877" y2="10.3701" gradientUnits="userSpaceOnUse">
<stop stop-color="#89B929"/>
<stop offset="0.5" stop-color="#57C384"/>
<stop offset="1" stop-color="#11A5B1"/>
</linearGradient>
</defs>
</svg>
