<svg width="24" height="24" viewBox="0 0 24 24" fill="none" xmlns="http://www.w3.org/2000/svg">
<g clip-path="url(#clip0_322_3796)">
<path d="M4.39484 7.21612L3.56773 6.38902C3.34901 6.1703 3.34901 5.81564 3.56773 5.59692L3.92932 5.23533C4.14804 5.01661 4.50269 5.01661 4.72141 5.23533L5.54852 6.06244L4.39484 7.21612Z" fill="#464754"/>
<path d="M4.72119 5.2355C4.52563 5.03994 4.22169 5.01978 4.00311 5.17391C4.02903 5.19219 4.05397 5.21234 4.07718 5.2355C4.53397 5.6923 4.53397 6.43292 4.07718 6.88972L4.07258 6.89431L4.39457 7.2163L5.5483 6.06256L4.72119 5.2355Z" fill="#373842"/>
<path d="M12.8068 2.00586H11.1932V3.77628H12.8068V2.00586Z" fill="#82889D"/>
<path d="M12.8066 2.00586H12.1769V3.77628H12.8066V2.00586Z" fill="#6E7484"/>
<path d="M19.581 7.18313L18.4401 6.04214L19.2469 5.23533C19.4656 5.01661 19.8203 5.01661 20.039 5.23533L20.3879 5.58422C20.6066 5.80294 20.6066 6.15759 20.3879 6.37631L19.581 7.18313Z" fill="#464754"/>
<path d="M20.3877 5.58391L20.0388 5.23502C19.8775 5.07372 19.6424 5.03177 19.4423 5.10841C19.4607 5.12271 19.4787 5.13785 19.4956 5.15482C19.907 5.56624 19.907 6.23322 19.4956 6.64464L19.2692 6.8711L19.5809 7.18282L20.3877 6.376C20.6065 6.15729 20.6065 5.80268 20.3877 5.58391Z" fill="#373842"/>
<path d="M11.9999 24C17.6179 24 22.1722 19.4456 22.1722 13.8276C22.1722 8.20959 17.6179 3.65527 11.9999 3.65527C6.38183 3.65527 1.82751 8.20959 1.82751 13.8276C1.82751 19.4456 6.38183 24 11.9999 24Z" fill="#E8D97C"/>
<path d="M11.9997 23.0652C17.1016 23.0652 21.2374 18.9293 21.2374 13.8275C21.2374 8.72568 17.1016 4.58984 11.9997 4.58984C6.89792 4.58984 2.76208 8.72568 2.76208 13.8275C2.76208 18.9293 6.89792 23.0652 11.9997 23.0652Z" fill="#E0CF67"/>
<path d="M12.0516 22.0475C16.5911 22.0475 20.2711 18.3674 20.2711 13.8279C20.2711 9.28841 16.5911 5.6084 12.0516 5.6084C7.51204 5.6084 3.83203 9.28841 3.83203 13.8279C3.83203 18.3674 7.51204 22.0475 12.0516 22.0475Z" fill="#EFF2FA"/>
<path d="M11.5225 12.7947L7.82229 9.70426C7.66535 9.57319 7.43177 9.5941 7.30057 9.75109C7.1695 9.90807 7.19041 10.1416 7.34744 10.2728L11.0477 13.3632C11.1169 13.4211 11.2011 13.4493 11.2849 13.4493C11.3908 13.4493 11.4961 13.4041 11.5694 13.3164C11.7005 13.1594 11.6795 12.9258 11.5225 12.7947Z" fill="#E8D97C"/>
<path d="M12.0515 8.99707C11.8469 8.99707 11.6811 9.16291 11.6811 9.36743V12.756C11.6811 12.9605 11.8469 13.1263 12.0515 13.1263C12.256 13.1263 12.4218 12.9605 12.4218 12.756V9.36743C12.4218 9.16291 12.256 8.99707 12.0515 8.99707Z" fill="#E8D97C"/>
<path d="M12.0518 15.1349C12.7738 15.1349 13.3592 14.5495 13.3592 13.8275C13.3592 13.1054 12.7738 12.52 12.0518 12.52C11.3297 12.52 10.7443 13.1054 10.7443 13.8275C10.7443 14.5495 11.3297 15.1349 12.0518 15.1349Z" fill="#ED7F95"/>
<path d="M12.0514 14.381C12.3571 14.381 12.605 14.1332 12.605 13.8275C12.605 13.5218 12.3571 13.2739 12.0514 13.2739C11.7457 13.2739 11.4979 13.5218 11.4979 13.8275C11.4979 14.1332 11.7457 14.381 12.0514 14.381Z" fill="#D97B8E"/>
<path d="M13.3081 2.07558H10.6918C10.4413 2.07558 10.2381 1.87242 10.2381 1.62183V0.45375C10.2381 0.203156 10.4413 0 10.6918 0H13.3081C13.5587 0 13.7618 0.203156 13.7618 0.45375V1.62183C13.7618 1.87242 13.5587 2.07558 13.3081 2.07558Z" fill="#464754"/>
<path d="M13.3079 0H12.2092C12.4598 0 12.6629 0.203156 12.6629 0.45375V1.62183C12.6629 1.87242 12.4598 2.07558 12.2092 2.07558H13.3079C13.5585 2.07558 13.7617 1.87242 13.7617 1.62183V0.45375C13.7617 0.203156 13.5585 0 13.3079 0Z" fill="#373842"/>
<path d="M5.67629 14.2574C5.91348 14.2574 6.10576 14.0651 6.10576 13.8279C6.10576 13.5907 5.91348 13.3984 5.67629 13.3984C5.43911 13.3984 5.24683 13.5907 5.24683 13.8279C5.24683 14.0651 5.43911 14.2574 5.67629 14.2574Z" fill="#464754"/>
<path d="M18.458 14.2574C18.6952 14.2574 18.8874 14.0651 18.8874 13.8279C18.8874 13.5907 18.6952 13.3984 18.458 13.3984C18.2208 13.3984 18.0285 13.5907 18.0285 13.8279C18.0285 14.0651 18.2208 14.2574 18.458 14.2574Z" fill="#464754"/>
<path d="M12.0519 7.86675C12.2891 7.86675 12.4814 7.67447 12.4814 7.43728C12.4814 7.20009 12.2891 7.00781 12.0519 7.00781C11.8147 7.00781 11.6224 7.20009 11.6224 7.43728C11.6224 7.67447 11.8147 7.86675 12.0519 7.86675Z" fill="#464754"/>
<path d="M12.0519 20.648C12.2891 20.648 12.4814 20.4557 12.4814 20.2185C12.4814 19.9813 12.2891 19.7891 12.0519 19.7891C11.8147 19.7891 11.6224 19.9813 11.6224 20.2185C11.6224 20.4557 11.8147 20.648 12.0519 20.648Z" fill="#464754"/>
</g>
<defs>
<clipPath id="clip0_322_3796">
<rect width="24" height="24" fill="white"/>
</clipPath>
</defs>
</svg>
