<svg width="185" height="80" viewBox="0 0 185 80" fill="none" xmlns="http://www.w3.org/2000/svg">
<mask id="path-1-inside-1_334_4116" fill="white">
<path d="M179 0C182.314 2.22268e-06 185 2.68629 185 6V74C185 77.3137 182.314 80 179 80H0L10 40L0 0H179Z"/>
</mask>
<path d="M179 0C182.314 2.22268e-06 185 2.68629 185 6V74C185 77.3137 182.314 80 179 80H0L10 40L0 0H179Z" fill="#FDFBF2"/>
<path d="M179 0V-1V0ZM185 6H186H185ZM0 80L-0.970142 79.7575L-1.28078 81H0V80ZM10 40L10.9701 40.2425L11.0308 40L10.9701 39.7575L10 40ZM0 0V-1H-1.28078L-0.970142 0.242536L0 0ZM179 0V1C181.761 1 184 3.23858 184 6H185H186C186 2.13401 182.866 -0.999997 179 -1V0ZM185 6H184V74H185H186V6H185ZM185 74H184C184 76.7614 181.761 79 179 79V80V81C182.866 81 186 77.866 186 74H185ZM179 80V79H0V80V81H179V80ZM0 80L0.970142 80.2425L10.9701 40.2425L10 40L9.02986 39.7575L-0.970142 79.7575L0 80ZM10 40L10.9701 39.7575L0.970142 -0.242536L0 0L-0.970142 0.242536L9.02986 40.2425L10 40ZM0 0V1H179V0V-1H0V0Z" fill="#DCDCDC" mask="url(#path-1-inside-1_334_4116)"/>
</svg>
